<svg xmlns="http://www.w3.org/2000/svg" width="1200pt" height="1200pt" version="1.1" viewBox="0 0 1200 1200">
 <path d="m627.91 1173.5c-0.39062 0.28125-0.78125 0.55859-1.1758 0.83594 17.062-16.965 33.758-45.438 43.852-79.719 13.613-47.426 18.98-108.12 18.062-146.6-0.91016-22.371-10.918-70.816-29.07-114.66-9.9805-24.16-25.312-48.312-35.297-65.316-10.879-17.016-10.957-53.695-16.406-96.641 0.91016 46.531-3.6953 69.875 8.0977 102.99 7.2578 19.68 31.777 46.527 39.039 72.48 9.9805 34.902 20.852 73.375 19.934 96.641 0 26.852-1.7031 76.938-13.496 130.63-8.9961 44.363-29.723 82.434-64.578 104.01-35.703-7.25-77.625-19.625-102.37-40.539-48.094-41.16-90.688-109.98-96.137-169.94-4.5312-49.215 41.68-121.79 106.11-158.48 54.445-31.32 67.109-67.016 78.906-124.29-16.336 50.109-31.672 92.117-84.305 118.96-76.227 39.371-115.34 105.46-111.71 168.1 5.4414 80.531 38.152 135.1 102.58 178.95 18.742 12.938 48.691 26.383 75.898 35.254-99.453-22.668-109.02-33.148-137.61-66.465 0-1.7852-7.2617-6.2617-7.2617-8.0508-36.301-41.164-82.578-110.96-98.914-175.39-5.4453-22.367-10.895-46.527-4.543-68.902 29.941-105.59 95.285-146.74 160.62-190.6 16.332-10.73 31.762-21.477 47.188-32.207 36.301-27.742 45.379-102.01 53.543-143.18-15.434 51-30.855 113.64-58.984 134.22-14.516 11.629-32.664 20.586-48.094 30.426-68.059 45.637-135.22 88.59-166.07 197.75-7.2578 27.746-1.8164 48.32 4.5352 75.172 17.238 67.109 63.523 138.69 101.64 181.65 0 0 6.3516 6.2695 6.3516 7.1602 17.285 19.664 39.543 33.566 65.719 44.73-22.777-6.2344-44.793-14.16-65.703-24.156-106.17-51.008-176.95-160.18-181.49-249.66-9.9805-181.65 78.953-234.44 160.63-300.66 46.277-37.582 109.8-55.477 147-121.7 7.2617-14.309 17.145-44.215 8.9766-77.32-3.6328-11.633-12.582-47.598-18.934-56.547l42.168 16.633 38.461 16.516c-0.027344 13.348-0.14453 30.543 0.003906 24.492-2.6914 47.816 3.7188 65.496 12.789 100.39 9.9805 38.48 60.805 93.957 81.676 157.49 39.926 121.7 29.945 280.98 0.90234 405.35-5.1133 20.605-19.254 45.559-38.172 68.359 6.668-12.023 12.387-25.113 16.391-38.828 29.043-100.22 40.84-146.75 27.23-257.71-1.8164-10.746-6.3516-47.422-23.594-86.801-25.41-59.957-61.711-117.22-66.242-128.86-8.1719-18.785-19.062-100.21-20.879-155.69 0.91016 46.527 4.5391 133.33 17.246 167.33 3.625 11.629 37.203 62.637 60.789 124.38 16.34 42.957 19.969 82.328 22.691 93.957 10.891 51.008-2.7227 136.91-20.875 218.34-7.4727 36.109-29.723 79.508-57.109 105.69zm12.457-812.36c69.055-104.27 157.8-207.7 267.9-304.48-88.023 29.531-166.06 74.266-224.14 154.8 34.484-70.691 90.746-141.39 152.45-212.07-84.398 59.957-157.9 127.96-204.18 218.33l32.672-127.96c-45.734 80.359-78.059 163.26-90.824 244.73-32.16-14.031-67.969-26.395-67.969-26.395l-19.027 13.125c58.992 104.69 35.367 155.99 6.3242 175.68-58.992 40.27-145.21 90.379-187.85 134.22-82.586 83.219-106.18 162.86-98.918 267.55 8.168 134.23 107.09 246.08 239.57 289.93 58.074 18.801 111.61 21.48 171.51 21.48 96.195 0 195.11-25.055 266.8-84.117 76.227-62.637 121.6-156.59 121.6-254.12 0-98.43-41.738-191.5-115.25-257.71-39.023-34.895-88.027-63.527-138.84-91.27-22.688-12.531-92.566-66.219-68.973-143.17 0 0-24.016-10.797-42.844-18.551zm-37.891 485.73c0.90234 31.32 13.66 71.445 19.102 112.61 4.5469 30.426 2.5742 60.988 1.6641 87.836-0.89844 31.078-11.398 86.766-25.75 113.84-13.531-6.1211-18.824-13.102-27.617-24.367-10.883-15.211-18.277-30.426-25.539-48.32-5.4414-13.426-11.805-28.789-14.535-46.684-3.6289-26.844-2.6094-68.84 28.238-111.79 23.598-34.004 29.004-36.59 37.172-75.961-10.898 34.895-19.023 38.453-44.438 67.977-28.129 32.215-32.809 79.668-32.809 118.14 0 16.109 6.5156 33.988 12.875 50.98 7.2539 17.902 13.484 35.723 23.465 49.141 15 21.758 34.203 34.133 43.605 36.445 0.0625 0.015625 0.14453-0.011719 0.20703 0 0.19922 0.046875 0.42969 0.16797 0.62109 0.20703v-1.0234c17.609-19.359 28.203-38.59 31.77-57.945 4.5391-23.266 5.582-46.582 8.3086-74.324 2.7148-23.266 0.74219-54.605-5.6094-86.812-9.0703-40.27-24.379-81.328-30.73-109.95z" fill-rule="evenodd" fill="#ffdead"/>
</svg>